<mxfile host="app.diagrams.net" agent="Mozilla/5.0 (Macintosh; Intel Mac OS X 10_15_7) AppleWebKit/537.36 (KHTML, like Gecko) Chrome/126.0.0.0 Safari/537.36" version="28.1.0">
  <diagram name="第 1 页" id="Ie8UYRb_jQ_-8dDy_p2L">
    <mxGraphModel dx="1188" dy="638" grid="1" gridSize="10" guides="1" tooltips="1" connect="1" arrows="1" fold="1" page="1" pageScale="1" pageWidth="827" pageHeight="1169" math="0" shadow="0">
      <root>
        <mxCell id="0" />
        <mxCell id="1" parent="0" />
        <mxCell id="ED7PRQC9bT03xKeIf9AB-19" value="Twist Msg" style="rounded=0;whiteSpace=wrap;html=1;" vertex="1" parent="1">
          <mxGeometry x="690" y="70" width="100" height="170" as="geometry" />
        </mxCell>
        <mxCell id="ED7PRQC9bT03xKeIf9AB-3" value="" style="edgeStyle=orthogonalEdgeStyle;rounded=0;orthogonalLoop=1;jettySize=auto;html=1;curved=1;" edge="1" parent="1" source="ED7PRQC9bT03xKeIf9AB-1" target="ED7PRQC9bT03xKeIf9AB-2">
          <mxGeometry relative="1" as="geometry" />
        </mxCell>
        <mxCell id="ED7PRQC9bT03xKeIf9AB-16" style="edgeStyle=orthogonalEdgeStyle;curved=1;rounded=0;orthogonalLoop=1;jettySize=auto;html=1;exitX=0;exitY=0.5;exitDx=0;exitDy=0;startArrow=classic;startFill=1;endArrow=none;endFill=0;" edge="1" parent="1" source="ED7PRQC9bT03xKeIf9AB-1">
          <mxGeometry relative="1" as="geometry">
            <mxPoint x="30" y="310.2380952380952" as="targetPoint" />
          </mxGeometry>
        </mxCell>
        <mxCell id="ED7PRQC9bT03xKeIf9AB-18" value="输入方式2" style="edgeLabel;html=1;align=center;verticalAlign=middle;resizable=0;points=[];" vertex="1" connectable="0" parent="ED7PRQC9bT03xKeIf9AB-16">
          <mxGeometry x="0.4811" y="-1" relative="1" as="geometry">
            <mxPoint as="offset" />
          </mxGeometry>
        </mxCell>
        <mxCell id="ED7PRQC9bT03xKeIf9AB-1" value="用户画框" style="ellipse;whiteSpace=wrap;html=1;fillColor=#d5e8d4;strokeColor=#82b366;" vertex="1" parent="1">
          <mxGeometry x="90" y="280" width="90" height="60" as="geometry" />
        </mxCell>
        <mxCell id="ED7PRQC9bT03xKeIf9AB-5" value="" style="edgeStyle=orthogonalEdgeStyle;curved=1;rounded=0;orthogonalLoop=1;jettySize=auto;html=1;" edge="1" parent="1" source="ED7PRQC9bT03xKeIf9AB-2" target="ED7PRQC9bT03xKeIf9AB-4">
          <mxGeometry relative="1" as="geometry" />
        </mxCell>
        <mxCell id="ED7PRQC9bT03xKeIf9AB-2" value="IOU" style="ellipse;whiteSpace=wrap;html=1;" vertex="1" parent="1">
          <mxGeometry x="200" y="280" width="90" height="60" as="geometry" />
        </mxCell>
        <mxCell id="ED7PRQC9bT03xKeIf9AB-7" value="" style="edgeStyle=orthogonalEdgeStyle;curved=1;rounded=0;orthogonalLoop=1;jettySize=auto;html=1;entryX=0;entryY=0.5;entryDx=0;entryDy=0;" edge="1" parent="1" source="ED7PRQC9bT03xKeIf9AB-4" target="ED7PRQC9bT03xKeIf9AB-6">
          <mxGeometry relative="1" as="geometry" />
        </mxCell>
        <mxCell id="ED7PRQC9bT03xKeIf9AB-25" style="edgeStyle=orthogonalEdgeStyle;curved=1;rounded=0;orthogonalLoop=1;jettySize=auto;html=1;exitX=0.5;exitY=0;exitDx=0;exitDy=0;entryX=0;entryY=0.5;entryDx=0;entryDy=0;" edge="1" parent="1" source="ED7PRQC9bT03xKeIf9AB-4" target="ED7PRQC9bT03xKeIf9AB-23">
          <mxGeometry relative="1" as="geometry">
            <Array as="points">
              <mxPoint x="410" y="280" />
              <mxPoint x="410" y="115" />
            </Array>
          </mxGeometry>
        </mxCell>
        <mxCell id="ED7PRQC9bT03xKeIf9AB-27" value="BOX" style="edgeLabel;html=1;align=center;verticalAlign=middle;resizable=0;points=[];" vertex="1" connectable="0" parent="ED7PRQC9bT03xKeIf9AB-25">
          <mxGeometry x="0.0868" y="-1" relative="1" as="geometry">
            <mxPoint as="offset" />
          </mxGeometry>
        </mxCell>
        <mxCell id="ED7PRQC9bT03xKeIf9AB-4" value="YOLO" style="ellipse;whiteSpace=wrap;html=1;" vertex="1" parent="1">
          <mxGeometry x="340" y="280" width="90" height="60" as="geometry" />
        </mxCell>
        <mxCell id="ED7PRQC9bT03xKeIf9AB-21" value="" style="edgeStyle=orthogonalEdgeStyle;curved=1;rounded=0;orthogonalLoop=1;jettySize=auto;html=1;" edge="1" parent="1" source="ED7PRQC9bT03xKeIf9AB-6" target="ED7PRQC9bT03xKeIf9AB-20">
          <mxGeometry relative="1" as="geometry" />
        </mxCell>
        <mxCell id="ED7PRQC9bT03xKeIf9AB-6" value="ByteTrack" style="ellipse;whiteSpace=wrap;html=1;fillColor=#f8cecc;strokeColor=#b85450;" vertex="1" parent="1">
          <mxGeometry x="470" y="170" width="90" height="60" as="geometry" />
        </mxCell>
        <mxCell id="ED7PRQC9bT03xKeIf9AB-10" value="" style="edgeStyle=orthogonalEdgeStyle;curved=1;rounded=0;orthogonalLoop=1;jettySize=auto;html=1;" edge="1" parent="1" source="ED7PRQC9bT03xKeIf9AB-8" target="ED7PRQC9bT03xKeIf9AB-9">
          <mxGeometry relative="1" as="geometry" />
        </mxCell>
        <mxCell id="ED7PRQC9bT03xKeIf9AB-15" style="edgeStyle=orthogonalEdgeStyle;curved=1;rounded=0;orthogonalLoop=1;jettySize=auto;html=1;exitX=0;exitY=0.5;exitDx=0;exitDy=0;startArrow=classic;startFill=1;endArrow=none;endFill=0;" edge="1" parent="1" source="ED7PRQC9bT03xKeIf9AB-8">
          <mxGeometry relative="1" as="geometry">
            <mxPoint x="30" y="200.23809523809518" as="targetPoint" />
          </mxGeometry>
        </mxCell>
        <mxCell id="ED7PRQC9bT03xKeIf9AB-17" value="输入方式1" style="edgeLabel;html=1;align=center;verticalAlign=middle;resizable=0;points=[];" vertex="1" connectable="0" parent="ED7PRQC9bT03xKeIf9AB-15">
          <mxGeometry x="0.5132" y="-2" relative="1" as="geometry">
            <mxPoint as="offset" />
          </mxGeometry>
        </mxCell>
        <mxCell id="ED7PRQC9bT03xKeIf9AB-8" value="Text" style="ellipse;whiteSpace=wrap;html=1;fillColor=#d5e8d4;strokeColor=#82b366;" vertex="1" parent="1">
          <mxGeometry x="90" y="170" width="90" height="60" as="geometry" />
        </mxCell>
        <mxCell id="ED7PRQC9bT03xKeIf9AB-11" style="edgeStyle=orthogonalEdgeStyle;curved=1;rounded=0;orthogonalLoop=1;jettySize=auto;html=1;exitX=1;exitY=0.5;exitDx=0;exitDy=0;entryX=0;entryY=0.5;entryDx=0;entryDy=0;" edge="1" parent="1" source="ED7PRQC9bT03xKeIf9AB-9" target="ED7PRQC9bT03xKeIf9AB-4">
          <mxGeometry relative="1" as="geometry" />
        </mxCell>
        <mxCell id="ED7PRQC9bT03xKeIf9AB-12" value="方式1" style="edgeLabel;html=1;align=center;verticalAlign=middle;resizable=0;points=[];" vertex="1" connectable="0" parent="ED7PRQC9bT03xKeIf9AB-11">
          <mxGeometry x="-0.123" relative="1" as="geometry">
            <mxPoint as="offset" />
          </mxGeometry>
        </mxCell>
        <mxCell id="ED7PRQC9bT03xKeIf9AB-13" style="edgeStyle=orthogonalEdgeStyle;curved=1;rounded=0;orthogonalLoop=1;jettySize=auto;html=1;exitX=1;exitY=0.5;exitDx=0;exitDy=0;entryX=0;entryY=0.5;entryDx=0;entryDy=0;" edge="1" parent="1" source="ED7PRQC9bT03xKeIf9AB-9" target="ED7PRQC9bT03xKeIf9AB-6">
          <mxGeometry relative="1" as="geometry" />
        </mxCell>
        <mxCell id="ED7PRQC9bT03xKeIf9AB-14" value="方式2" style="edgeLabel;html=1;align=center;verticalAlign=middle;resizable=0;points=[];" vertex="1" connectable="0" parent="ED7PRQC9bT03xKeIf9AB-13">
          <mxGeometry x="-0.0583" y="1" relative="1" as="geometry">
            <mxPoint as="offset" />
          </mxGeometry>
        </mxCell>
        <mxCell id="ED7PRQC9bT03xKeIf9AB-24" style="edgeStyle=orthogonalEdgeStyle;curved=1;rounded=0;orthogonalLoop=1;jettySize=auto;html=1;exitX=1;exitY=0.5;exitDx=0;exitDy=0;entryX=0;entryY=0.5;entryDx=0;entryDy=0;" edge="1" parent="1" source="ED7PRQC9bT03xKeIf9AB-9" target="ED7PRQC9bT03xKeIf9AB-23">
          <mxGeometry relative="1" as="geometry" />
        </mxCell>
        <mxCell id="ED7PRQC9bT03xKeIf9AB-26" value="BOX" style="edgeLabel;html=1;align=center;verticalAlign=middle;resizable=0;points=[];" vertex="1" connectable="0" parent="ED7PRQC9bT03xKeIf9AB-24">
          <mxGeometry x="0.0744" y="-2" relative="1" as="geometry">
            <mxPoint as="offset" />
          </mxGeometry>
        </mxCell>
        <mxCell id="ED7PRQC9bT03xKeIf9AB-9" value="GroundingDINO" style="ellipse;whiteSpace=wrap;html=1;" vertex="1" parent="1">
          <mxGeometry x="210" y="170" width="90" height="60" as="geometry" />
        </mxCell>
        <mxCell id="ED7PRQC9bT03xKeIf9AB-20" value="YAW" style="whiteSpace=wrap;html=1;" vertex="1" parent="1">
          <mxGeometry x="700" y="185" width="80" height="30" as="geometry" />
        </mxCell>
        <mxCell id="ED7PRQC9bT03xKeIf9AB-22" value="linear x,y" style="whiteSpace=wrap;html=1;" vertex="1" parent="1">
          <mxGeometry x="700" y="100" width="80" height="30" as="geometry" />
        </mxCell>
        <mxCell id="ED7PRQC9bT03xKeIf9AB-31" value="" style="edgeStyle=orthogonalEdgeStyle;curved=1;rounded=0;orthogonalLoop=1;jettySize=auto;html=1;" edge="1" parent="1" source="ED7PRQC9bT03xKeIf9AB-23" target="ED7PRQC9bT03xKeIf9AB-30">
          <mxGeometry relative="1" as="geometry" />
        </mxCell>
        <mxCell id="ED7PRQC9bT03xKeIf9AB-23" value="Get target distance" style="rounded=0;whiteSpace=wrap;html=1;" vertex="1" parent="1">
          <mxGeometry x="450" y="100" width="70" height="30" as="geometry" />
        </mxCell>
        <mxCell id="ED7PRQC9bT03xKeIf9AB-32" style="edgeStyle=orthogonalEdgeStyle;curved=1;rounded=0;orthogonalLoop=1;jettySize=auto;html=1;exitX=1;exitY=0.5;exitDx=0;exitDy=0;entryX=0;entryY=0.5;entryDx=0;entryDy=0;" edge="1" parent="1" source="ED7PRQC9bT03xKeIf9AB-30" target="ED7PRQC9bT03xKeIf9AB-22">
          <mxGeometry relative="1" as="geometry" />
        </mxCell>
        <mxCell id="ED7PRQC9bT03xKeIf9AB-30" value="Linear Map" style="rounded=0;whiteSpace=wrap;html=1;" vertex="1" parent="1">
          <mxGeometry x="550" y="100" width="70" height="30" as="geometry" />
        </mxCell>
        <mxCell id="ED7PRQC9bT03xKeIf9AB-34" style="edgeStyle=orthogonalEdgeStyle;curved=1;rounded=0;orthogonalLoop=1;jettySize=auto;html=1;exitX=1;exitY=0.5;exitDx=0;exitDy=0;" edge="1" parent="1" source="ED7PRQC9bT03xKeIf9AB-33">
          <mxGeometry relative="1" as="geometry">
            <mxPoint x="460" y="70" as="targetPoint" />
          </mxGeometry>
        </mxCell>
        <mxCell id="ED7PRQC9bT03xKeIf9AB-35" value="??" style="edgeLabel;html=1;align=center;verticalAlign=middle;resizable=0;points=[];" vertex="1" connectable="0" parent="ED7PRQC9bT03xKeIf9AB-34">
          <mxGeometry x="0.2377" y="2" relative="1" as="geometry">
            <mxPoint as="offset" />
          </mxGeometry>
        </mxCell>
        <mxCell id="ED7PRQC9bT03xKeIf9AB-33" value="避障??" style="rounded=0;whiteSpace=wrap;html=1;" vertex="1" parent="1">
          <mxGeometry x="260" y="50" width="120" height="40" as="geometry" />
        </mxCell>
      </root>
    </mxGraphModel>
  </diagram>
</mxfile>
